<?xml version="1.0" encoding="UTF-8" standalone="no"?>
<!-- Created with Inkscape (http://www.inkscape.org/) -->

<svg
   width="1000"
   height="1000"
   viewBox="0 0 264.58333 264.58333"
   version="1.1"
   id="svg1"
   xml:space="preserve"
   inkscape:version="1.3.2 (091e20e, 2023-11-25, custom)"
   sodipodi:docname="icon.svg"
   xmlns:inkscape="http://www.inkscape.org/namespaces/inkscape"
   xmlns:sodipodi="http://sodipodi.sourceforge.net/DTD/sodipodi-0.dtd"
   xmlns="http://www.w3.org/2000/svg"
   xmlns:svg="http://www.w3.org/2000/svg"><sodipodi:namedview
     id="namedview1"
     pagecolor="#ffffff"
     bordercolor="#666666"
     borderopacity="1.0"
     inkscape:showpageshadow="2"
     inkscape:pageopacity="0.0"
     inkscape:pagecheckerboard="0"
     inkscape:deskcolor="#d1d1d1"
     inkscape:document-units="mm"
     inkscape:zoom="0.66279462"
     inkscape:cx="631.41732"
     inkscape:cy="567.29489"
     inkscape:window-width="1920"
     inkscape:window-height="995"
     inkscape:window-x="-9"
     inkscape:window-y="356"
     inkscape:window-maximized="1"
     inkscape:current-layer="layer3" /><defs
     id="defs1"><inkscape:path-effect
       effect="fillet_chamfer"
       id="path-effect3"
       is_visible="true"
       lpeversion="1"
       nodesatellites_param="F,0,0,1,0,0,0,1 @ F,0,0,1,0,4.72355,0,1 @ F,0,0,1,0,3.9419526,0,1 @ F,0,0,1,0,3.3041758,0,1 @ F,0,0,1,0,4.3442127,0,1 @ F,0,0,1,0,11.313995,0,1 @ F,0,0,1,0,5.9945008,0,1 @ F,0,0,1,0,15.893304,0,1 @ F,0,0,1,0,12.91446,0,1 @ F,0,0,1,0,6.5375091,0,1 @ F,0,0,1,0,0,0,1 @ F,0,0,1,0,0,0,1"
       radius="0"
       unit="px"
       method="auto"
       mode="F"
       chamfer_steps="1"
       flexible="false"
       use_knot_distance="true"
       apply_no_radius="true"
       apply_with_radius="true"
       only_selected="false"
       hide_knots="false" /><inkscape:path-effect
       effect="fillet_chamfer"
       id="path-effect12"
       is_visible="true"
       lpeversion="1"
       nodesatellites_param="F,0,0,1,0,0,0,1 @ F,0,0,1,0,1.4683412,0,1 @ F,0,0,1,0,2.2263959,0,1 @ F,0,0,1,0,1.0045408,0,1 @ F,0,0,1,0,1.4012751,0,1 @ F,0,0,1,0,1.7907812,0,1 @ F,0,0,1,0,1.2228402,0,1 @ F,0,0,1,0,1.3313622,0,1 @ F,0,0,1,0,1.0536586,0,1 @ F,0,0,1,0,1.2537254,0,1 @ F,0,0,1,0,1.4158859,0,1 @ F,0,0,1,0,3.7597616,0,1 @ F,0,0,1,0,2.7010886,0,1 @ F,0,0,1,0,1.7733206,0,1 @ F,0,0,1,0,0.48105074,0,1 @ F,0,0,1,0,0.69178895,0,1 @ F,0,0,1,0,1.2860304,0,1 @ F,0,0,1,0,1.1780848,0,1 @ F,0,0,1,0,1.0966248,0,1 @ F,0,0,1,0,1.3094932,0,1 @ F,0,0,1,0,1.2722057,0,1 @ F,0,0,1,0,1.5093053,0,1 @ F,0,0,1,0,1.3860114,0,1 @ F,0,0,1,0,1.232933,0,1 @ F,0,0,1,0,2.0246954,0,1 @ F,0,0,1,0,1.0443183,0,1 @ F,0,0,1,0,1.7288335,0,1 @ F,0,0,1,0,1.4110822,0,1 @ F,0,0,1,0,1.6812169,0,1 @ F,0,0,1,0,1.2343344,0,1 @ F,0,0,1,0,1.5527164,0,1 @ F,0,0,1,0,1.1600101,0,1 @ F,0,0,1,0,1.7088414,0,1 @ F,0,0,1,0,0.72638314,0,1 @ F,0,0,1,0,0.76313627,0,1 @ F,0,0,1,0,0.68286648,0,1 @ F,0,0,1,0,1.7698733,0,1 @ F,0,0,1,0,0,0,1 @ F,0,0,1,0,0,0,1 @ F,0,0,1,0,0,0,1"
       radius="0"
       unit="px"
       method="auto"
       mode="F"
       chamfer_steps="1"
       flexible="false"
       use_knot_distance="true"
       apply_no_radius="true"
       apply_with_radius="true"
       only_selected="false"
       hide_knots="false" /><inkscape:path-effect
       effect="fillet_chamfer"
       id="path-effect10"
       is_visible="true"
       lpeversion="1"
       nodesatellites_param="F,0,0,1,0,0,0,1 @ F,0,0,1,0,1.745602,0,1 @ F,0,0,1,0,2.5650269,0,1 @ F,0,0,1,0,3.1233614,0,1 @ F,0,0,1,0,1.1064032,0,1 @ F,0,0,1,0,1.509817,0,1 @ F,0,0,1,0,3.3098307,0,1 @ F,0,0,1,0,3.0964519,0,1 @ F,0,0,1,0,5.9945008,0,1 @ F,0,0,1,0,7.4641628,0,1 @ F,0,0,1,0,5.7538643,0,1 @ F,0,0,1,0,4.7599736,0,1 @ F,0,0,1,0,6.5375091,0,1 @ F,0,0,1,0,0,0,1 @ F,0,0,1,0,0,0,1 @ F,0,0,1,0,0,0,1"
       radius="0"
       unit="px"
       method="auto"
       mode="F"
       chamfer_steps="1"
       flexible="false"
       use_knot_distance="true"
       apply_no_radius="true"
       apply_with_radius="true"
       only_selected="false"
       hide_knots="false" /><inkscape:path-effect
       effect="fillet_chamfer"
       id="path-effect8"
       is_visible="true"
       lpeversion="1"
       nodesatellites_param="F,0,0,1,0,0,0,1 @ F,0,0,1,0,1.4683412,0,1 @ F,0,0,1,0,2.2263959,0,1 @ F,0,0,1,0,1.0045408,0,1 @ F,0,0,1,0,1.4012751,0,1 @ F,0,0,1,0,1.7907812,0,1 @ F,0,0,1,0,1.2228402,0,1 @ F,0,0,1,0,1.3313622,0,1 @ F,0,0,1,0,1.0536586,0,1 @ F,0,0,1,0,1.2537254,0,1 @ F,0,0,1,0,1.4158859,0,1 @ F,0,0,1,0,3.7597616,0,1 @ F,0,0,1,0,2.7010886,0,1 @ F,0,0,1,0,1.7733206,0,1 @ F,0,0,1,0,0.48105074,0,1 @ F,0,0,1,0,0.69178895,0,1 @ F,0,0,1,0,1.2860304,0,1 @ F,0,0,1,0,1.1780848,0,1 @ F,0,0,1,0,1.0966248,0,1 @ F,0,0,1,0,1.3094932,0,1 @ F,0,0,1,0,1.2722057,0,1 @ F,0,0,1,0,1.5093053,0,1 @ F,0,0,1,0,1.3860114,0,1 @ F,0,0,1,0,1.232933,0,1 @ F,0,0,1,0,2.0246954,0,1 @ F,0,0,1,0,1.0443183,0,1 @ F,0,0,1,0,1.7288335,0,1 @ F,0,0,1,0,1.4110822,0,1 @ F,0,0,1,0,1.6812169,0,1 @ F,0,0,1,0,1.2343344,0,1 @ F,0,0,1,0,1.5527164,0,1 @ F,0,0,1,0,1.1600101,0,1 @ F,0,0,1,0,1.7088414,0,1 @ F,0,0,1,0,0.72638314,0,1 @ F,0,0,1,0,0.76313627,0,1 @ F,0,0,1,0,0.68286648,0,1 @ F,0,0,1,0,1.7698733,0,1 @ F,0,0,1,0,0,0,1 @ F,0,0,1,0,0,0,1 @ F,0,0,1,0,0,0,1"
       radius="0"
       unit="px"
       method="auto"
       mode="F"
       chamfer_steps="1"
       flexible="false"
       use_knot_distance="true"
       apply_no_radius="true"
       apply_with_radius="true"
       only_selected="false"
       hide_knots="false" /><inkscape:path-effect
       effect="fillet_chamfer"
       id="path-effect7"
       is_visible="true"
       lpeversion="1"
       nodesatellites_param="F,0,0,1,0,0,0,1 @ F,0,0,1,0,4.72355,0,1 @ F,0,0,1,0,3.9419526,0,1 @ F,0,0,1,0,3.3041758,0,1 @ F,0,0,1,0,4.3442127,0,1 @ F,0,0,1,0,11.313995,0,1 @ F,0,0,1,0,5.9945008,0,1 @ F,0,0,1,0,15.893304,0,1 @ F,0,0,1,0,12.91446,0,1 @ F,0,0,1,0,6.5375091,0,1 @ F,0,0,1,0,0,0,1 @ F,0,0,1,0,0,0,1"
       radius="0"
       unit="px"
       method="auto"
       mode="F"
       chamfer_steps="1"
       flexible="false"
       use_knot_distance="true"
       apply_no_radius="true"
       apply_with_radius="true"
       only_selected="false"
       hide_knots="false" /><inkscape:path-effect
       effect="fillet_chamfer"
       id="path-effect6"
       is_visible="true"
       lpeversion="1"
       nodesatellites_param="F,0,0,1,0,0,0,1 @ F,0,0,1,0,0,0,1 @ F,0,0,1,0,0,0,1 @ F,0,0,1,0,0,0,1 @ F,0,0,1,0,0,0,1 @ F,0,0,1,0,0,0,1 @ F,0,0,1,0,0,0,1 @ F,0,0,1,0,0,0,1 @ F,0,0,1,0,0,0,1 @ F,0,0,1,0,0,0,1 @ F,0,0,1,0,0,0,1 @ F,0,0,1,0,0,0,1 @ F,0,0,1,0,0,0,1 @ F,0,0,1,0,0,0,1 @ F,0,0,1,0,0,0,1 @ F,0,0,1,0,0,0,1"
       radius="0"
       unit="px"
       method="auto"
       mode="F"
       chamfer_steps="1"
       flexible="false"
       use_knot_distance="true"
       apply_no_radius="true"
       apply_with_radius="true"
       only_selected="false"
       hide_knots="false" /><clipPath
       clipPathUnits="userSpaceOnUse"
       id="clipPath3"><rect
         style="fill:#000000;fill-opacity:1;stroke:#808080;stroke-width:0;stroke-linecap:round;stroke-linejoin:round;stroke-opacity:0.499058"
         id="rect4"
         width="150.8125"
         height="150.8125"
         x="56.885418"
         y="37.570835"
         ry="1.3229166" /></clipPath><clipPath
       clipPathUnits="userSpaceOnUse"
       id="clipPath4"><path
         style="fill:#6b92bb;fill-opacity:1;stroke:none;stroke-width:0.264583px;stroke-linecap:butt;stroke-linejoin:miter;stroke-opacity:1"
         d="m 207.69791,114.86794 c -1.69966,-2.32209 -1.99311,-1.14118 -4.39487,-3.00929 -3.15968,-0.9037 -3.69745,-5.10621 -6.9847,-5.97977 -2.09507,2.45271 -2.81236,-0.015 -3.76151,-2.21623 -1.47814,-2.68504 -1.95712,-6.126743 -4.96267,-7.588566 -1.65603,-1.135522 -3.48251,-3.77731 -4.66372,-0.716724 -2.16416,1.195631 -3.93396,3.346654 -6.38709,3.842242 -0.46057,2.458178 -3.64771,2.418798 -4.74043,4.391118 -2.62361,-1.57136 -2.41935,2.5758 -4.52115,1.99329 -1.50796,2.37246 -3.55155,0.28661 -5.65828,0.80107 -0.84995,-2.86043 -4.22699,1.17168 -5.75646,-0.41724 -2.09727,-0.8873 -3.84073,1.28477 -6.0588,1.48161 -1.58497,0.001 -2.79818,-0.38891 -4.25408,-2.82966 -1.68177,-1.05714 -1.98446,-1.14285 -4.13563,-2.46046 -2.34658,0.31056 -3.43907,0.96589 -4.7511,-1.78922 -1.30084,-3.032836 -2.88395,-1.980268 -4.54144,0.14881 -1.78596,0.52951 -4.44459,2.16139 -5.98185,0.47018 -1.80687,-1.827079 -4.53241,0.14517 -6.35593,-0.43531 -1.63694,-0.19343 -3.15978,0.28819 -4.03687,-2.754617 -1.37882,-1.810475 -0.85821,-4.214807 -2.65944,-5.698223 -1.53736,-0.751445 -1.65705,-3.267162 -3.69789,-4.248073 -1.90131,-1.427668 -3.5862,-1.180412 -5.7069,-0.525682 -2.08531,-1.061283 -4.504698,-0.447 -6.216606,-1.615665 -1.540086,-0.488431 -4.017176,0.08517 -5.661964,-0.331084 -1.738474,1.668278 -1.876356,2.946326 -3.883096,2.236492 -2.091719,0.390649 -3.431318,3.210602 -5.451033,2.248947 -3.036269,-1.857925 -2.491193,2.973554 -4.346353,2.88285 -2.556751,-0.663816 -3.065722,-0.152905 -5.432957,-0.453991 -1.521357,1.806885 -3.465176,3.414578 -5.682419,3.959127 -2.155397,-1.341794 -3.694631,1.223844 -5.476597,1.784213 -2.067227,-1.470176 -3.379216,1.002633 -4.650658,1.02812 V 188.38333 H 207.69792 c 0,-24.50513 -1e-5,-49.01026 -1e-5,-73.51539 z"
         id="path5"
         inkscape:label="Mountains"
         sodipodi:nodetypes="cccccccccccccccccccccccccccccccccc" /></clipPath><clipPath
       clipPathUnits="userSpaceOnUse"
       id="clipPath14"><path
         style="fill:#54b0af;fill-opacity:1;stroke:none;stroke-width:0.264583px;stroke-linecap:butt;stroke-linejoin:miter;stroke-opacity:1"
         d="m 207.69791,143.25327 -2.79071,2.73093 a 2.3688563,2.3688563 172.00669 0 1 -2.78324,0.39083 l -1.42995,-0.77295 a 10.805163,10.805163 15.038869 0 0 -4.82039,-1.29513 l -3.91133,-0.11504 a 83.934886,83.934886 3.8157614 0 1 -6.22856,-0.41542 l -2.56754,-0.26745 a 2.7222238,2.7222238 163.82838 0 0 -1.96885,0.57095 l -0.62816,0.49591 a 1.9787394,1.9787394 179.05424 0 1 -2.40029,0.0396 l -5.78846,-4.2674 a 6.9496572,6.9496572 10.932079 0 0 -5.86802,-1.13341 l -3.32543,0.86215 a 9.585804,9.585804 3.3673146 0 1 -5.8829,-0.34614 l -12.55756,-4.88818 a 827.51632,827.51632 20.854014 0 0 -11.20332,-4.26783 l -10.11156,-3.76828 a 57.753427,57.753427 13.074778 0 0 -14.42137,-3.34927 l -8.018,-0.8018 a 320.87605,320.87605 6.7378867 0 1 -11.426416,-1.34996 l -2.002562,-0.27307 a 38.090496,38.090496 14.888223 0 1 -9.129345,-2.42712 l -2.792794,-1.12901 a 184.63921,184.63921 24.039079 0 1 -11.933516,-5.32289 l -6.822221,-3.33729 v 79.5673 H 207.69792 Z"
         id="path14"
         inkscape:label="Hill path"
         sodipodi:nodetypes="ccccccccccccccccc"
         inkscape:original-d="m 207.69791,143.25327 -4.03833,3.95182 -5.22204,-2.82273 -9.59726,-0.28227 -6.77454,-0.70568 -2.68159,2.11704 -9.66783,-7.12737 -9.5267,2.46988 -21.0293,-8.1859 -22.72293,-8.46818 -21.170434,-2.11704 -12.419989,-1.69364 -13.266806,-5.36317 -12.694745,-6.21 v 79.5673 H 207.69792 Z"
         inkscape:path-effect="#path-effect10" /></clipPath><clipPath
       clipPathUnits="userSpaceOnUse"
       id="clipPath15"><path
         style="fill:#6b92bb;fill-opacity:1;stroke:none;stroke-width:0.264583px;stroke-linecap:butt;stroke-linejoin:miter;stroke-opacity:1"
         d="m 207.69791,114.74376 -0.68145,-0.79219 a 6.0015691,6.0015691 35.549354 0 0 -2.32088,-1.65848 l -0.80361,-0.32145 a 10.667416,10.667416 33.590425 0 1 -3.631,-2.41155 l -3.02317,-3.06347 a 1.5887185,1.5887185 13.074378 0 0 -1.65409,-0.38414 l -0.76286,0.26611 a 1.4615875,1.4615875 24.562483 0 1 -1.83993,-0.84093 l -2.35103,-5.9246 a 5.9999783,5.9999783 51.7371 0 0 -2.12531,-2.694699 l -3.95667,-2.782713 a 1.4448976,1.4448976 174.87682 0 0 -1.85939,0.166705 l -3.70976,3.75732 a 20.339756,20.339756 138.38006 0 1 -1.98631,1.764769 l -4.46852,3.475508 a 2.0759658,2.0759658 169.0352 0 1 -1.84483,0.35742 2.144234,2.144234 164.79295 0 0 -1.92864,0.52425 l -2.0363,1.68522 a 2.7238257,2.7238257 167.8554 0 1 -2.45635,0.52859 l -0.15978,-0.0438 a 24.136906,24.136906 6.4677851 0 0 -7.38263,-0.83694 l -0.31929,0.0133 a 13.619901,13.619901 166.39677 0 0 -5.15033,1.24631 l -1.58436,0.73276 a 2.2026579,2.2026579 14.016385 0 1 -2.68034,-0.6691 l -2.16709,-2.86056 a 0.49475274,0.49475274 8.6577868 0 0 -0.68194,-0.10383 l -0.0336,0.024 a 0.7353673,0.7353673 7.7132788 0 1 -0.99862,-0.13526 l -0.87141,-1.07473 a 1.6015229,1.6015229 12.199662 0 0 -1.96021,-0.4238 l -0.47762,0.23881 a 1.3820785,1.3820785 13.879333 0 1 -1.74078,-0.43014 l -2.62518,-3.65651 a 0.9104896,0.9104896 4.0253071 0 0 -1.39757,-0.09835 l -1.44184,1.507374 a 5.1707486,5.1707486 147.93836 0 1 -2.15161,1.347694 l -1.7061,0.54942 a 2.7127805,2.7127805 7.2747865 0 1 -2.28512,-0.29171 l -1.32103,-0.83834 a 4.1379277,4.1379277 12.36044 0 0 -2.77012,-0.607049 l -3.41121,0.459939 a 2.0666023,2.0666023 26.16968 0 1 -2.0662,-1.015343 l -1.86682,-3.23582 a 22.647206,22.647206 63.134469 0 1 -1.11268,-2.196471 l -0.24052,-0.546647 a 12.646266,12.646266 57.154635 0 0 -2.16866,-3.359264 l -2.324,-2.586376 a 2.0430993,2.0430993 20.985065 0 0 -1.73642,-0.66603 l -2.5351,0.270411 a 9.6138423,9.6138423 4.1058849 0 1 -3.39434,-0.243661 L 97.339996,85.80653 A 13.923291,13.923291 8.5132966 0 0 94.563152,85.390869 L 93.20616,85.32625 a 5.1296433,5.1296433 164.57999 0 0 -3.080182,0.849581 l -5.121415,3.398324 a 2.7617869,2.7617869 170.51513 0 1 -2.223,0.371399 l -0.690174,-0.179732 a 1.7745421,1.7745421 153.4108 0 0 -2.089908,1.046055 l -0.314719,0.770232 a 1.5144895,1.5144895 149.67502 0 1 -1.58982,0.929946 l -2.798751,-0.349843 a 4.1255092,4.1255092 164.62502 0 0 -3.044524,0.837171 l -3.793769,2.950708 a 1.2891352,1.2891352 171.52478 0 1 -1.251851,0.186537 L 66.20002,95.751205 a 1.3713402,1.3713402 171.82907 0 0 -1.320135,0.189551 l -2.095363,1.594298 a 1.6609597,1.6609597 165.08251 0 1 -1.220576,0.325169 L 60.749951,97.75405 a 3.5134659,3.5134659 160.69521 0 0 -2.983553,1.045105 l -0.880982,0.913592 V 188.38333 H 207.69792 Z"
         id="path15"
         inkscape:label="Mountains path"
         inkscape:path-effect="#path-effect12"
         inkscape:original-d="m 207.69791,114.74376 -1.63901,-1.90534 -4.23409,-1.69364 -5.29261,-5.36317 -3.03443,1.05852 -3.5284,-8.891585 -6.4217,-4.516361 -5.50431,5.574882 -6.35114,4.939764 -1.9759,-0.56454 -4.09295,3.38727 -5.15147,-1.41136 -6.77454,0.28227 -5.64545,2.61102 -3.52841,-4.6575 -0.98795,0.70568 -2.11705,-2.61101 -2.68159,1.34079 -3.95181,-5.504315 -3.105,3.246135 -4.16352,1.34079 -3.66954,-2.328746 -6.28056,0.846816 -3.17557,-5.504311 -1.55249,-3.528406 -4.37523,-4.869199 -5.29261,0.564544 -7.197943,-1.834771 -4.445791,-0.211704 -7.550788,5.010338 -3.38727,-0.882102 -1.340794,3.281418 -5.645449,-0.705681 -5.716019,4.445791 -2.399315,-0.917387 -3.246134,2.469885 -3.246133,-0.42341 -2.109528,2.187612 V 188.38333 H 207.69792 Z"
         sodipodi:nodetypes="ccccccccccccccccccccccccccccccccccccccccc" /></clipPath><clipPath
       clipPathUnits="userSpaceOnUse"
       id="clipPath5"><path
         style="display:inline;fill:#577f7e;fill-opacity:1;stroke:none;stroke-width:0.264583px;stroke-linecap:butt;stroke-linejoin:miter;stroke-opacity:1"
         d="m 207.69791,143.25327 -0.57592,0.34207 c -2.24294,1.3322 -5.82407,1.1271 -8.32589,0.42523 -3.16676,-0.8884 -6.09747,-0.47525 -9.70117,-0.45082 -2.17559,0.0147 -5.61417,-0.71998 -7.68499,-1.39183 l -8.55072,-2.77417 a 11.332658,11.332658 1.7202679 0 0 -6.34133,-0.19045 l -2.12309,0.55043 a 13.448545,13.448545 3.3673146 0 1 -8.2535,-0.48562 l -6.43761,-2.50592 a 1561.8507,1561.8507 20.854014 0 0 -21.14509,-8.05508 l -6.50409,-2.42389 c -3.10225,-1.15612 -8.29189,-2.31576 -11.59525,-2.53521 -2.54278,-0.16893 -4.89085,-0.3054 -7.20534,-0.45342 -8.757321,-0.56005 -22.470994,-4.03751 -30.680066,-7.14523 a 79.430443,79.430443 11.466428 0 0 -15.688436,-3.18228 l -2e-6,75.40625 H 207.69792 Z"
         id="path8"
         inkscape:label="Hill path"
         sodipodi:nodetypes="ccccccccccccc"
         inkscape:original-d="m 207.69791,143.25327 -4.63712,2.75424 c -6.24649,-4.08403 -10.5418,-1.84649 -17.9013,-2.6131 l -15.44317,-5.01033 -9.5267,2.46988 -21.0293,-8.1859 -22.72293,-8.46818 c -11.24095,-0.92645 -17.829126,-0.89024 -28.999697,-2.4135 l -17.857532,-6.76035 -12.694743,-2.04895 -2e-6,75.40625 H 207.69792 Z"
         inkscape:path-effect="#path-effect3" /></clipPath></defs><g
     inkscape:groupmode="layer"
     id="layer4"
     inkscape:label="Background"><rect
       style="fill:#b2b2b2;fill-opacity:1;stroke:#808080;stroke-width:0;stroke-linecap:round;stroke-linejoin:round;stroke-opacity:0.499058"
       id="rect3"
       width="260.35001"
       height="260.35001"
       x="2.1166666"
       y="2.1166666"
       ry="26.458334"
       inkscape:label="Background" /></g><g
     inkscape:groupmode="layer"
     id="layer2"
     inkscape:label="Paper"
     style="display:inline"><rect
       style="fill:#ffffff;fill-opacity:1;stroke:#808080;stroke-width:0;stroke-linecap:round;stroke-linejoin:round;stroke-opacity:0.499058"
       id="rect1"
       width="166.6875"
       height="206.375"
       x="48.947918"
       y="28.102152"
       ry="2.6458333"
       inkscape:label="Paper" /></g><g
     inkscape:groupmode="layer"
     id="layer3"
     inkscape:label="Image"><rect
       style="display:inline;fill:#a8d6e5;fill-opacity:1;stroke:#808080;stroke-width:0;stroke-linecap:round;stroke-linejoin:round;stroke-opacity:0.499058"
       id="rect14"
       width="150.8125"
       height="150.8125"
       x="56.885418"
       y="37.570835"
       ry="1.3229166"
       inkscape:label="Sky" /><rect
       style="display:inline;fill:#6b92bb;fill-opacity:1;stroke:#808080;stroke-width:0;stroke-linecap:round;stroke-linejoin:round;stroke-opacity:0.499058"
       id="rect13"
       width="150.8125"
       height="150.8125"
       x="56.885418"
       y="37.570835"
       ry="1.3229166"
       inkscape:label="Mountains"
       clip-path="url(#clipPath15)" /><rect
       style="display:inline;fill:#577f7e;fill-opacity:1;stroke:#808080;stroke-width:0;stroke-linecap:round;stroke-linejoin:round;stroke-opacity:0.499058"
       id="rect2"
       width="150.8125"
       height="150.8125"
       x="56.885418"
       y="37.570835"
       ry="1.3229166"
       inkscape:label="Hill"
       clip-path="url(#clipPath5)" /></g></svg>
